# xmcd
#
# Track frame offsets:
# 150
# 26787
# 45823
# 62034
# 80073
# 98308
# 116023
# 137249
# 157562
# 176132
# 194839
# 214901
# 234726
# 255357
# 273441
# 290688
# 304900
# 322263
#
# Disc length: 4527 seconds
#
#
# Revision: 0
# Processed by: cddbd v1.5.1PL0 Copyright (c) Steve Scherf et al.
# Submitted via: FreeRIP 2.942 
#
DISCID=0811ad12
DTITLE=Πετρέλης, Καραφώτης, Ζωή - Θάλασσα
DYEAR=1900
DGENRE=
TTITLE0=Θυμίζεις κάτι από Ελλάδα
TTITLE1=Κερνάω
TTITLE2=Η ωραία
TTITLE3=Χρόνια είχα έτσι να αισθανθώ
TTITLE4=Πως ξεχνιέται κάπια σαν εσένα
TTITLE5=Μετά απο εσένα ξαναζώ
TTITLE6=Είμαι εδώ
TTITLE7=Λυπάμαι
TTITLE8=Δήλωση καρδιάς
TTITLE9=Δεν σε νοιάζει
TTITLE10=Μαύρη ζωή
TTITLE11=Δεν πιστεύω τίποτα
TTITLE12=Μου έλειψες
TTITLE13=Σαν χειμωνιάτικη βροχή
TTITLE14=Κρίμα
TTITLE15=Δεν βάζω εγώ μυαλό
TTITLE16=Δεν είσαι του γούστου μου
TTITLE17=Ας πρόσεχες
EXTD=
EXTT0=
EXTT1=
EXTT2=
EXTT3=
EXTT4=
EXTT5=
EXTT6=
EXTT7=
EXTT8=
EXTT9=
EXTT10=
EXTT11=
EXTT12=
EXTT13=
EXTT14=
EXTT15=
EXTT16=
EXTT17=
PLAYORDER=
